<svg width="80" height="81" viewBox="0 0 80 81" fill="none" xmlns="http://www.w3.org/2000/svg">
<mask id="mask0_16_65" style="mask-type:alpha" maskUnits="userSpaceOnUse" x="0" y="0" width="80" height="81">
<rect y="0.285156" width="80" height="80" fill="#D9D9D9"/>
</mask>
<g mask="url(#mask0_16_65)">
<path d="M57.1667 69.2852L37 48.9518C35.8889 49.3963 34.7639 49.7296 33.625 49.9518C32.4861 50.174 31.2778 50.2852 30 50.2852C24.4444 50.2852 19.7222 48.3407 15.8333 44.4518C11.9444 40.5629 10 35.8407 10 30.2852C10 28.2852 10.2778 26.3824 10.8333 24.5768C11.3889 22.7713 12.1667 21.0629 13.1667 19.4518L25.3333 31.6185L31.3333 25.6185L19.1667 13.4518C20.7778 12.4518 22.4861 11.674 24.2917 11.1185C26.0972 10.5629 28 10.2852 30 10.2852C35.5556 10.2852 40.2778 12.2296 44.1667 16.1185C48.0556 20.0074 50 24.7296 50 30.2852C50 31.5629 49.8889 32.7713 49.6667 33.9102C49.4444 35.049 49.1111 36.174 48.6667 37.2852L69 57.4518C69.6667 58.1185 70 58.924 70 59.8685C70 60.8129 69.6667 61.6185 69 62.2852L62 69.2852C61.3333 69.9518 60.5278 70.2852 59.5833 70.2852C58.6389 70.2852 57.8333 69.9518 57.1667 69.2852ZM59.5833 62.2018L61.8333 59.9518L40.5 38.6185C41.5 37.5074 42.2222 36.2157 42.6667 34.7435C43.1111 33.2713 43.3333 31.7852 43.3333 30.2852C43.3333 26.9518 42.2639 24.049 40.125 21.5768C37.9861 19.1046 35.3333 17.6185 32.1667 17.1185L38.3333 23.2852C39 23.9518 39.3333 24.7296 39.3333 25.6185C39.3333 26.5074 39 27.2852 38.3333 27.9518L27.6667 38.6185C27 39.2852 26.2222 39.6185 25.3333 39.6185C24.4444 39.6185 23.6667 39.2852 23 38.6185L16.8333 32.4518C17.3333 35.6185 18.8194 38.2713 21.2917 40.4102C23.7639 42.549 26.6667 43.6185 30 43.6185C31.4444 43.6185 32.8889 43.3963 34.3333 42.9518C35.7778 42.5074 37.0833 41.8129 38.25 40.8685L59.5833 62.2018Z" fill="white"/>
</g>
</svg>
