<svg width="36" height="37" viewBox="0 0 36 37" fill="none" xmlns="http://www.w3.org/2000/svg">
<mask id="mask0_16_42" style="mask-type:alpha" maskUnits="userSpaceOnUse" x="0" y="0" width="36" height="37">
<rect y="0.785156" width="36" height="36" fill="#D9D9D9"/>
</mask>
<g mask="url(#mask0_16_42)">
<path d="M18 24.7852L24 18.7852L18 12.7852L15.9 14.8852L18.3 17.2852H12V20.2852H18.3L15.9 22.6852L18 24.7852ZM18 33.7852C15.925 33.7852 13.975 33.3914 12.15 32.6039C10.325 31.8164 8.7375 30.7477 7.3875 29.3977C6.0375 28.0477 4.96875 26.4602 4.18125 24.6352C3.39375 22.8102 3 20.8602 3 18.7852C3 16.7102 3.39375 14.7602 4.18125 12.9352C4.96875 11.1102 6.0375 9.52266 7.3875 8.17266C8.7375 6.82266 10.325 5.75391 12.15 4.96641C13.975 4.17891 15.925 3.78516 18 3.78516C20.075 3.78516 22.025 4.17891 23.85 4.96641C25.675 5.75391 27.2625 6.82266 28.6125 8.17266C29.9625 9.52266 31.0312 11.1102 31.8187 12.9352C32.6062 14.7602 33 16.7102 33 18.7852C33 20.8602 32.6062 22.8102 31.8187 24.6352C31.0312 26.4602 29.9625 28.0477 28.6125 29.3977C27.2625 30.7477 25.675 31.8164 23.85 32.6039C22.025 33.3914 20.075 33.7852 18 33.7852ZM18 30.7852C21.35 30.7852 24.1875 29.6227 26.5125 27.2977C28.8375 24.9727 30 22.1352 30 18.7852C30 15.4352 28.8375 12.5977 26.5125 10.2727C24.1875 7.94766 21.35 6.78516 18 6.78516C14.65 6.78516 11.8125 7.94766 9.4875 10.2727C7.1625 12.5977 6 15.4352 6 18.7852C6 22.1352 7.1625 24.9727 9.4875 27.2977C11.8125 29.6227 14.65 30.7852 18 30.7852Z" fill="#0058AB"/>
</g>
</svg>
