<svg width="258" height="257" viewBox="0 0 258 257" fill="none" xmlns="http://www.w3.org/2000/svg">
<mask id="mask0_10_1169" style="mask-type:alpha" maskUnits="userSpaceOnUse" x="0" y="0" width="258" height="257">
<rect x="257.392" y="256.785" width="256.785" height="256.785" transform="rotate(-180 257.392 256.785)" fill="#D9D9D9"/>
</mask>
<g mask="url(#mask0_10_1169)">
<path d="M143.979 85.595C143.979 100.039 142.686 110.426 140.101 116.757C137.515 123.087 132.031 129.997 123.65 137.487C116.339 143.907 110.766 149.479 106.933 154.205C103.099 158.93 101.182 164.324 101.182 170.387C101.182 177.699 103.634 183.762 108.537 188.576C113.441 193.391 120.262 195.798 129 195.798C138.094 195.798 145.004 193.034 149.73 187.506C154.456 181.978 157.799 176.361 159.761 170.655L187.312 182.424C183.567 193.837 176.701 203.734 166.715 212.115C156.729 220.496 144.157 224.687 129 224.687C110.276 224.687 95.8765 219.471 85.8012 209.039C75.726 198.607 70.6884 186.08 70.6884 171.457C70.6884 162.541 72.6054 154.918 76.4393 148.587C80.2733 142.257 86.2917 135.08 94.4945 127.055C103.232 118.674 108.537 112.299 110.41 107.93C112.282 103.561 113.218 96.116 113.218 85.595L143.979 85.595ZM129 21.3988C134.885 21.3988 139.922 23.494 144.113 27.6846C148.303 31.8752 150.399 36.9128 150.399 42.7975C150.399 48.6821 148.303 53.7198 144.113 57.9103C139.922 62.1009 134.885 64.1962 129 64.1962C123.115 64.1962 118.078 62.1009 113.887 57.9103C109.697 53.7197 107.601 48.6821 107.601 42.7975C107.601 36.9128 109.697 31.8752 113.887 27.6846C118.078 23.494 123.115 21.3987 129 21.3988Z" fill="#FFB320"/>
</g>
</svg>
