<svg width="80" height="81" viewBox="0 0 80 81" fill="none" xmlns="http://www.w3.org/2000/svg">
<mask id="mask0_16_68" style="mask-type:alpha" maskUnits="userSpaceOnUse" x="0" y="0" width="80" height="81">
<rect y="0.285156" width="80" height="80" fill="#D9D9D9"/>
</mask>
<g mask="url(#mask0_16_68)">
<path d="M73.3332 20.2848V60.2848C73.3332 62.1182 72.6804 63.6876 71.3748 64.9932C70.0693 66.2987 68.4998 66.9515 66.6665 66.9515H13.3332C11.4998 66.9515 9.93039 66.2987 8.62484 64.9932C7.31928 63.6876 6.6665 62.1182 6.6665 60.2848V20.2848C6.6665 18.4515 7.31928 16.8821 8.62484 15.5765C9.93039 14.2709 11.4998 13.6182 13.3332 13.6182H66.6665C68.4998 13.6182 70.0693 14.2709 71.3748 15.5765C72.6804 16.8821 73.3332 18.4515 73.3332 20.2848ZM13.3332 26.9515H66.6665V20.2848H13.3332V26.9515ZM13.3332 40.2848V60.2848H66.6665V40.2848H13.3332Z" fill="white"/>
</g>
</svg>
