<svg width="49" height="49" viewBox="0 0 49 49" fill="none" xmlns="http://www.w3.org/2000/svg">
<g clip-path="url(#clip0_16_107)">
<path d="M24.5 0.785156C11.2453 0.785156 0.5 10.1832 0.5 21.7743C0.5 30.3378 4.29217 34.4231 9.48525 38.1493L9.5109 38.159V48.2072C9.5109 48.6827 10.0856 48.9544 10.4859 48.6682L19.5892 42.2783L19.7842 42.3559C21.3082 42.6227 22.8887 42.7634 24.5 42.7634C37.7546 42.7634 48.5 33.3654 48.5 21.7743C48.5 10.1832 37.7546 0.785156 24.5 0.785156ZM16.4538 27.0919C18.804 27.0919 20.8207 25.7625 21.4262 23.7053H24.9054C24.0536 27.6645 20.7951 30.2602 16.4538 30.2602C11.4096 30.2602 7.41212 26.7038 7.41212 21.75C7.41212 16.8011 11.4096 13.2447 16.4538 13.2447C20.8361 13.2447 24.1203 15.889 24.931 19.9209H21.4622C20.9336 17.7327 18.8554 16.3645 16.4589 16.3645C13.067 16.3645 10.8092 18.6546 10.8092 21.75C10.8092 24.8552 13.3749 27.0919 16.4538 27.0919ZM39.3865 29.9351H36.1998V23.1328C36.1998 21.5657 35.2351 20.7263 33.7521 20.7263C32.0946 20.7263 31.0324 21.6821 31.0324 23.6229V29.9351H27.8406V13.2981H31.0324V19.557C31.797 18.4605 33.0337 17.9219 34.7168 17.9219C36.0767 17.9219 37.1902 18.344 38.0523 19.2077C38.9452 20.0713 39.3865 21.2406 39.3865 22.7592V29.9351Z" fill="white"/>
</g>
<defs>
<clipPath id="clip0_16_107">
<rect width="48" height="48" fill="white" transform="translate(0.5 0.785156)"/>
</clipPath>
</defs>
</svg>
