<svg width="80" height="81" viewBox="0 0 80 81" fill="none" xmlns="http://www.w3.org/2000/svg">
<mask id="mask0_16_71" style="mask-type:alpha" maskUnits="userSpaceOnUse" x="0" y="0" width="80" height="81">
<rect y="0.285156" width="80" height="80" fill="#D9D9D9"/>
</mask>
<g mask="url(#mask0_16_71)">
<path d="M19.9999 66.9515C17.2221 66.9515 14.861 65.9793 12.9166 64.0348C10.9721 62.0904 9.99992 59.7293 9.99992 56.9515H3.33325V20.2848C3.33325 18.4515 3.98603 16.8821 5.29159 15.5765C6.59714 14.2709 8.16659 13.6182 9.99992 13.6182H56.6666V26.9515H66.6666L76.6666 40.2848V56.9515H69.9999C69.9999 59.7293 69.0277 62.0904 67.0833 64.0348C65.1388 65.9793 62.7777 66.9515 59.9999 66.9515C57.2221 66.9515 54.861 65.9793 52.9166 64.0348C50.9721 62.0904 49.9999 59.7293 49.9999 56.9515H29.9999C29.9999 59.7293 29.0277 62.0904 27.0833 64.0348C25.1388 65.9793 22.7777 66.9515 19.9999 66.9515ZM19.9999 60.2848C20.9444 60.2848 21.736 59.9654 22.3749 59.3265C23.0138 58.6876 23.3333 57.8959 23.3333 56.9515C23.3333 56.0071 23.0138 55.2154 22.3749 54.5765C21.736 53.9376 20.9444 53.6182 19.9999 53.6182C19.0555 53.6182 18.2638 53.9376 17.6249 54.5765C16.986 55.2154 16.6666 56.0071 16.6666 56.9515C16.6666 57.8959 16.986 58.6876 17.6249 59.3265C18.2638 59.9654 19.0555 60.2848 19.9999 60.2848ZM9.99992 50.2848H12.6666C13.611 49.2848 14.6944 48.4793 15.9166 47.8682C17.1388 47.2571 18.4999 46.9515 19.9999 46.9515C21.4999 46.9515 22.861 47.2571 24.0833 47.8682C25.3055 48.4793 26.3888 49.2848 27.3333 50.2848H49.9999V20.2848H9.99992V50.2848ZM59.9999 60.2848C60.9444 60.2848 61.736 59.9654 62.3749 59.3265C63.0138 58.6876 63.3333 57.8959 63.3333 56.9515C63.3333 56.0071 63.0138 55.2154 62.3749 54.5765C61.736 53.9376 60.9444 53.6182 59.9999 53.6182C59.0555 53.6182 58.2638 53.9376 57.6249 54.5765C56.986 55.2154 56.6666 56.0071 56.6666 56.9515C56.6666 57.8959 56.986 58.6876 57.6249 59.3265C58.2638 59.9654 59.0555 60.2848 59.9999 60.2848ZM56.6666 43.6182H70.8333L63.3333 33.6182H56.6666V43.6182Z" fill="white"/>
</g>
</svg>
