<svg width="48" height="49" viewBox="0 0 48 49" fill="none" xmlns="http://www.w3.org/2000/svg">
<rect y="0.785156" width="48" height="48" rx="24" fill="#0058AB"/>
<path d="M18.4078 38.7852C17.6371 38.7852 16.9773 38.511 16.4284 37.9627C15.8796 37.4143 15.6052 36.7552 15.6052 35.9852C15.6052 35.2152 15.8796 34.556 16.4284 34.0077C16.9773 33.4593 17.6371 33.1852 18.4078 33.1852C19.1785 33.1852 19.8383 33.4593 20.3871 34.0077C20.9359 34.556 21.2104 35.2152 21.2104 35.9852C21.2104 36.7552 20.9359 37.4143 20.3871 37.9627C19.8383 38.511 19.1785 38.7852 18.4078 38.7852ZM32.4207 38.7852C31.65 38.7852 30.9902 38.511 30.4414 37.9627C29.8925 37.4143 29.6181 36.7552 29.6181 35.9852C29.6181 35.2152 29.8925 34.556 30.4414 34.0077C30.9902 33.4593 31.65 33.1852 32.4207 33.1852C33.1914 33.1852 33.8512 33.4593 34.4 34.0077C34.9489 34.556 35.2233 35.2152 35.2233 35.9852C35.2233 36.7552 34.9489 37.4143 34.4 37.9627C33.8512 38.511 33.1914 38.7852 32.4207 38.7852ZM17.2167 16.3852L20.5798 23.3852H30.3888L34.2424 16.3852H17.2167ZM15.8854 13.5852H36.5545C37.0917 13.5852 37.5004 13.8243 37.7807 14.3027C38.0609 14.781 38.0726 15.2652 37.8157 15.7552L32.8411 24.7152C32.5842 25.1818 32.2397 25.5435 31.8076 25.8002C31.3756 26.0568 30.9026 26.1852 30.3888 26.1852H19.9492L18.4078 28.9852H35.2233V31.7852H18.4078C17.3568 31.7852 16.5627 31.3243 16.0256 30.4027C15.4884 29.481 15.465 28.5652 15.9555 27.6552L17.8473 24.2252L12.8026 13.5852H10V10.7852H14.5542L15.8854 13.5852Z" fill="white"/>
</svg>
