<svg width="48" height="49" viewBox="0 0 48 49" fill="none" xmlns="http://www.w3.org/2000/svg">
<rect y="0.785156" width="48" height="48" rx="24" fill="#0058AB"/>
<path d="M24 37.6304L21.97 35.8104C19.6133 33.6871 17.665 31.8554 16.125 30.3154C14.585 28.7754 13.36 27.3929 12.45 26.1679C11.54 24.9429 10.9042 23.8171 10.5425 22.7904C10.1808 21.7638 10 20.7138 10 19.6404C10 17.4471 10.735 15.6154 12.205 14.1454C13.675 12.6754 15.5067 11.9404 17.7 11.9404C18.9133 11.9404 20.0683 12.1971 21.165 12.7104C22.2617 13.2238 23.2067 13.9471 24 14.8804C24.7933 13.9471 25.7383 13.2238 26.835 12.7104C27.9317 12.1971 29.0867 11.9404 30.3 11.9404C32.4933 11.9404 34.325 12.6754 35.795 14.1454C37.265 15.6154 38 17.4471 38 19.6404C38 20.7138 37.8192 21.7638 37.4575 22.7904C37.0958 23.8171 36.46 24.9429 35.55 26.1679C34.64 27.3929 33.415 28.7754 31.875 30.3154C30.335 31.8554 28.3867 33.6871 26.03 35.8104L24 37.6304ZM24 33.8504C26.24 31.8438 28.0833 30.1229 29.53 28.6879C30.9767 27.2529 32.12 26.0046 32.96 24.9429C33.8 23.8813 34.3833 22.9363 34.71 22.1079C35.0367 21.2796 35.2 20.4571 35.2 19.6404C35.2 18.2404 34.7333 17.0738 33.8 16.1404C32.8667 15.2071 31.7 14.7404 30.3 14.7404C29.2033 14.7404 28.1883 15.0496 27.255 15.6679C26.3217 16.2863 25.68 17.0738 25.33 18.0304H22.67C22.32 17.0738 21.6783 16.2863 20.745 15.6679C19.8117 15.0496 18.7967 14.7404 17.7 14.7404C16.3 14.7404 15.1333 15.2071 14.2 16.1404C13.2667 17.0738 12.8 18.2404 12.8 19.6404C12.8 20.4571 12.9633 21.2796 13.29 22.1079C13.6167 22.9363 14.2 23.8813 15.04 24.9429C15.88 26.0046 17.0233 27.2529 18.47 28.6879C19.9167 30.1229 21.76 31.8438 24 33.8504Z" fill="white"/>
</svg>
