<svg width="64" height="65" viewBox="0 0 64 65" fill="none" xmlns="http://www.w3.org/2000/svg">
<g clip-path="url(#clip0_16_107)">
<path d="M32.0001 0.319336C15.0472 0.319336 1.30371 13.0324 1.30371 28.712C1.30371 40.2962 6.15397 45.8225 12.796 50.8631L12.8288 50.8762V64.4687C12.8288 65.1119 13.5639 65.4794 14.0758 65.0922L25.7191 56.4484L25.9685 56.5534C27.9178 56.9144 29.9392 57.1047 32.0001 57.1047C48.953 57.1047 62.6965 44.3917 62.6965 28.712C62.6965 13.0324 48.953 0.319336 32.0001 0.319336ZM21.7089 35.9054C24.7149 35.9054 27.2942 34.107 28.0687 31.3242H32.5186C31.4291 36.6798 27.2614 40.1912 21.7089 40.1912C15.2572 40.1912 10.1444 35.3803 10.1444 28.6792C10.1444 21.9847 15.2572 17.1738 21.7089 17.1738C27.3139 17.1738 31.5144 20.7508 32.5514 26.2049H28.1147C27.4386 23.2448 24.7805 21.394 21.7155 21.394C17.3772 21.394 14.4893 24.4918 14.4893 28.6792C14.4893 32.8797 17.7709 35.9054 21.7089 35.9054ZM51.0401 39.7514H46.9644V30.5497C46.9644 28.4298 45.7305 27.2944 43.8337 27.2944C41.7137 27.2944 40.3551 28.5873 40.3551 31.2126V39.7514H36.2728V17.246H40.3551V25.7126C41.3331 24.2293 42.9148 23.5008 45.0676 23.5008C46.8068 23.5008 48.2311 24.0718 49.3337 25.2401C50.4757 26.4083 51.0401 27.9901 51.0401 30.0444V39.7514Z" fill="white"/>
</g>
<defs>
<clipPath id="clip0_16_107">
<rect width="64" height="64" fill="white" transform="translate(0 0.785156)"/>
</clipPath>
</defs>
</svg>
