<svg width="36" height="37" viewBox="0 0 36 37" fill="none" xmlns="http://www.w3.org/2000/svg">
<mask id="mask0_16_95" style="mask-type:alpha" maskUnits="userSpaceOnUse" x="0" y="0" width="36" height="37">
<rect y="0.285156" width="36" height="36" fill="#D9D9D9"/>
</mask>
<g mask="url(#mask0_16_95)">
<path d="M15.9 25.1852L26.475 14.6102L24.375 12.5102L15.9 20.9852L11.625 16.7102L9.525 18.8102L15.9 25.1852ZM18 33.2852C15.925 33.2852 13.975 32.8914 12.15 32.1039C10.325 31.3164 8.7375 30.2477 7.3875 28.8977C6.0375 27.5477 4.96875 25.9602 4.18125 24.1352C3.39375 22.3102 3 20.3602 3 18.2852C3 16.2102 3.39375 14.2602 4.18125 12.4352C4.96875 10.6102 6.0375 9.02266 7.3875 7.67266C8.7375 6.32266 10.325 5.25391 12.15 4.46641C13.975 3.67891 15.925 3.28516 18 3.28516C20.075 3.28516 22.025 3.67891 23.85 4.46641C25.675 5.25391 27.2625 6.32266 28.6125 7.67266C29.9625 9.02266 31.0312 10.6102 31.8187 12.4352C32.6062 14.2602 33 16.2102 33 18.2852C33 20.3602 32.6062 22.3102 31.8187 24.1352C31.0312 25.9602 29.9625 27.5477 28.6125 28.8977C27.2625 30.2477 25.675 31.3164 23.85 32.1039C22.025 32.8914 20.075 33.2852 18 33.2852ZM18 30.2852C21.35 30.2852 24.1875 29.1227 26.5125 26.7977C28.8375 24.4727 30 21.6352 30 18.2852C30 14.9352 28.8375 12.0977 26.5125 9.77266C24.1875 7.44766 21.35 6.28516 18 6.28516C14.65 6.28516 11.8125 7.44766 9.4875 9.77266C7.1625 12.0977 6 14.9352 6 18.2852C6 21.6352 7.1625 24.4727 9.4875 26.7977C11.8125 29.1227 14.65 30.2852 18 30.2852Z" fill="#0058AB"/>
</g>
</svg>
