<svg width="32" height="33" viewBox="0 0 32 33" fill="none" xmlns="http://www.w3.org/2000/svg">
<mask id="mask0_16_95" style="mask-type:alpha" maskUnits="userSpaceOnUse" x="0" y="0" width="32" height="33">
<rect y="0.785156" width="32" height="32" fill="#D9D9D9"/>
</mask>
<g mask="url(#mask0_16_95)">
<path d="M14.1334 22.9188L23.5334 13.5188L21.6667 11.6521L14.1334 19.1855L10.3334 15.3855L8.46675 17.2521L14.1334 22.9188ZM16.0001 30.1188C14.1556 30.1188 12.4223 29.7688 10.8001 29.0688C9.17786 28.3688 7.76675 27.4188 6.56675 26.2188C5.36675 25.0188 4.41675 23.6077 3.71675 21.9855C3.01675 20.3633 2.66675 18.6299 2.66675 16.7855C2.66675 14.941 3.01675 13.2077 3.71675 11.5855C4.41675 9.96326 5.36675 8.55215 6.56675 7.35215C7.76675 6.15215 9.17786 5.20215 10.8001 4.50215C12.4223 3.80215 14.1556 3.45215 16.0001 3.45215C17.8445 3.45215 19.5779 3.80215 21.2001 4.50215C22.8223 5.20215 24.2334 6.15215 25.4334 7.35215C26.6334 8.55215 27.5834 9.96326 28.2834 11.5855C28.9834 13.2077 29.3334 14.941 29.3334 16.7855C29.3334 18.6299 28.9834 20.3633 28.2834 21.9855C27.5834 23.6077 26.6334 25.0188 25.4334 26.2188C24.2334 27.4188 22.8223 28.3688 21.2001 29.0688C19.5779 29.7688 17.8445 30.1188 16.0001 30.1188ZM16.0001 27.4521C18.9779 27.4521 21.5001 26.4188 23.5667 24.3521C25.6334 22.2855 26.6667 19.7633 26.6667 16.7855C26.6667 13.8077 25.6334 11.2855 23.5667 9.21882C21.5001 7.15215 18.9779 6.11881 16.0001 6.11881C13.0223 6.11881 10.5001 7.15215 8.43341 9.21882C6.36675 11.2855 5.33341 13.8077 5.33341 16.7855C5.33341 19.7633 6.36675 22.2855 8.43341 24.3521C10.5001 26.4188 13.0223 27.4521 16.0001 27.4521Z" fill="#0058AB"/>
</g>
</svg>
